<svg width="39" height="41" viewBox="0 0 39 41" fill="none" xmlns="http://www.w3.org/2000/svg">
<path id="Vector" d="M19.6193 11.6123C18.2365 14.3316 17.0279 16.6557 15.8658 19.0147C14.727 21.3388 13.6231 23.6746 12.5307 26.022C10.776 29.7871 9.02126 33.5522 7.28978 37.3289C6.38337 39.3277 5.18643 40.1411 3.26902 40.2108C0.921641 40.2922 -0.705255 37.8054 0.305745 35.4696C2.19992 31.1351 4.25678 26.8587 6.33688 22.6055C8.73074 17.7132 11.2408 12.879 13.6812 8.0099C14.6224 6.12735 15.5172 4.20994 16.4236 2.29253C17.0976 0.886422 18.2132 -0.0316123 19.7704 0.0148704C21.2578 0.0613532 22.2805 0.967767 22.9312 2.38549C28.0327 13.367 33.1807 24.3254 38.3054 35.2953C39.0491 36.8757 38.2008 39.2231 36.632 40.0133C35.1794 40.7454 33.0645 40.0598 32.2394 38.398C30.2987 34.4702 28.4627 30.4843 26.5917 26.5217C24.6511 22.4079 22.7221 18.2942 20.793 14.1921C20.456 13.4716 20.119 12.7395 19.6077 11.6239L19.6193 11.6123Z" fill="white"/>
</svg>
