<svg width="38" height="41" viewBox="0 0 38 41" fill="none" xmlns="http://www.w3.org/2000/svg">
<path id="Vector" d="M26.8226 18.6194C29.2397 18.6194 31.6568 18.6194 34.0856 18.6194C36.1657 18.631 37.3742 19.6769 37.7461 21.7454C39.0825 29.2291 34.9455 36.2596 27.8104 39.0718C24.0221 40.5593 20.1291 40.873 16.3292 40.0015C9.97263 38.5373 5.2895 34.7838 2.43081 28.7178C0.594745 24.8249 0.222878 20.7576 0.954982 16.7717C2.27974 9.57853 6.49804 4.5119 13.4007 1.68808C16.9102 0.24711 20.4777 0.479524 24.0685 0.653834C25.5908 0.723559 26.9969 2.46666 26.8226 4.01221C26.6251 5.69721 25.9046 7.11494 23.8013 7.24277C22.9413 7.28925 22.0698 7.17304 21.1982 7.12656C15.3763 6.84766 10.0191 10.5314 8.05522 16.1558C6.21916 21.4316 8.1598 27.3698 12.5873 30.9025C16.9683 34.3887 24.1964 34.4584 28.0661 31.1349C29.5767 29.845 30.5877 28.2762 31.1107 26.3704C31.4244 25.2432 30.7388 25.1851 29.9137 25.1851C26.4275 25.1967 22.9413 25.0805 19.4667 25.2316C17.1775 25.3246 15.9573 23.6396 15.9805 21.9081C16.0038 19.8977 17.3518 18.6427 19.5713 18.631C21.9884 18.631 24.4055 18.631 26.8343 18.631L26.8226 18.6194Z" fill="white"/>
</svg>
