<svg width="7" height="41" viewBox="0 0 7 41" fill="none" xmlns="http://www.w3.org/2000/svg">
<path id="Vector" d="M6.89135 20.1187C6.89135 25.5339 6.76352 30.9491 6.94945 36.3644C7.01918 38.5956 5.462 40.3038 3.68404 40.2224C1.53421 40.1295 0.20945 38.8744 0.19783 36.5154C0.174588 29.6941 0.19783 22.8844 0.19783 16.063C0.19783 11.9028 0.186209 7.74262 0.19783 3.58241C0.19783 1.86255 1.27856 0.50293 2.88221 0.0845848C4.114 -0.240795 5.76414 0.456447 6.51949 1.80445C6.82163 2.339 6.85649 3.08272 6.86811 3.72186C6.89135 9.18358 6.87973 14.6453 6.87973 20.1187H6.90297H6.89135Z" fill="white"/>
</svg>
