<svg width="27" height="41" viewBox="0 0 27 41" fill="none" xmlns="http://www.w3.org/2000/svg">
<path id="Vector" d="M7.94355 16.4232C7.94355 20.5369 8.04813 24.6506 7.90869 28.7644C7.81572 31.3325 9.87259 33.6567 12.6616 33.5056C16.1826 33.3197 19.7269 33.4475 23.2596 33.4707C25.1189 33.4707 26.4204 34.8885 26.5948 36.6897C26.7458 38.3398 25.1306 40.2456 23.4107 40.1991C19.1575 40.1062 14.8811 40.2805 10.6395 40.0829C6.87444 39.9086 3.29528 37.1545 2.12159 33.6218C1.44759 31.5766 1.09896 29.3454 1.0641 27.1956C0.936273 19.7467 0.982753 12.2862 1.05248 4.83737C1.05248 3.77989 1.31975 2.62944 1.80782 1.69978C2.53993 0.293678 4.08548 -0.252494 5.34051 0.107747C6.96741 0.584195 7.93193 1.78113 7.94355 3.50099C7.96679 7.81226 7.94355 12.1119 7.94355 16.4232Z" fill="white"/>
</svg>
