<svg width="29" height="41" viewBox="0 0 29 41" fill="none" xmlns="http://www.w3.org/2000/svg">
<path id="Vector" d="M21.9987 24.4067C21.9987 23.8373 21.9987 23.2795 21.9987 22.7101C21.9987 16.5627 22.0103 10.4154 21.9987 4.26803C21.9987 2.8503 22.2543 1.52554 23.4745 0.700475C24.5552 -0.0432492 25.7289 -0.240801 27.0072 0.502923C28.1576 1.17692 28.6689 2.07172 28.6689 3.39648C28.6457 14.5291 28.6689 25.6733 28.6573 36.806C28.6573 38.5026 27.902 39.7111 26.647 40.1062C25.0549 40.6059 23.4977 40.0597 22.5216 38.5491C20.151 34.9234 17.8385 31.2745 15.4911 27.6372C13.0856 23.8954 10.6801 20.1651 8.26301 16.4349C8.17005 16.2954 8.04222 16.1792 7.68198 15.7609C7.61226 16.6324 7.54253 17.1786 7.54253 17.7248C7.54253 23.8721 7.56578 30.0195 7.53091 36.1668C7.51929 38.7234 6.07833 40.327 3.95174 40.2108C1.98784 40.0946 0.60498 38.642 0.546877 36.3179C0.500394 34.4818 0.535254 32.6341 0.535254 30.7981C0.535254 21.9431 0.535254 13.0765 0.535254 4.22154C0.535254 2.59465 1.02332 1.20016 2.66184 0.44482C4.3236 -0.322146 6.03184 0.165923 7.0196 1.7231C11.6911 9.05575 16.3626 16.3884 21.0342 23.7211C21.2085 23.9883 21.4409 24.2324 21.6384 24.4764C21.7546 24.4532 21.8825 24.4299 21.9987 24.4067Z" fill="white"/>
</svg>
