<svg width="41" height="41" viewBox="0 0 41 41" fill="none" xmlns="http://www.w3.org/2000/svg">
<path id="Vector" d="M40.5677 19.9791C40.8931 26.1032 38.3482 31.0304 34.2461 35.0163C31.9336 37.2591 29.0749 39.13 25.6468 39.6297C23.8107 39.897 21.9746 40.5477 20.1502 40.4896C15.1417 40.3386 10.6096 38.7465 6.87937 35.2255C4.04392 32.5411 2.04516 29.3919 0.952811 25.6035C0.0580177 22.466 0.0580198 19.3632 0.464744 16.2024C0.720399 14.1804 2.57971 12.4605 4.17175 12.7046C6.55399 13.0764 7.6347 14.7963 7.12339 17.3529C5.93808 23.2794 9.19188 29.9032 15.2114 32.39C22.8694 35.5508 30.4694 31.5882 33.1421 24.6506C35.3384 18.9449 33.2002 12.9137 28.122 9.25323C26.6694 8.20737 24.9147 7.54499 23.2413 6.82451C21.533 6.08078 20.4058 4.15175 20.9753 2.57133C21.5447 1.00254 23.5434 -0.229253 25.4841 0.340161C30.7483 1.89733 34.7923 4.97682 37.6393 9.55537C39.6149 12.7394 40.8815 16.2373 40.5561 19.9791H40.5677Z" fill="white"/>
</svg>
