<svg width="29" height="41" viewBox="0 0 29 41" fill="none" xmlns="http://www.w3.org/2000/svg">
<path id="Vector" d="M7.14992 22.6171C7.14992 23.6281 7.14992 24.488 7.14992 25.3479C7.14992 29.1247 7.14992 32.9014 7.14992 36.6665C7.14992 38.8977 5.95299 40.1062 3.90775 40.2108C2.10654 40.3038 0.491269 38.7001 0.549373 36.6084C0.688821 30.8562 0.595856 25.0923 0.595856 19.34C0.595856 16.8997 1.94386 15.5517 4.45393 15.5517C8.81168 15.5401 13.1578 15.5517 17.5156 15.5517C19.7119 15.5517 20.9088 14.4013 20.9785 12.2282C21.0134 11.3566 21.0134 10.4851 20.9669 9.61353C20.8623 7.8007 20.014 6.97564 18.2361 6.94077C16.5859 6.90591 14.9474 6.99888 13.2973 6.90591C10.3108 6.75484 8.69548 4.0356 10.2643 1.65336C10.7523 0.909635 11.8331 0.131049 12.6581 0.119428C15.482 0.0729454 18.3639 0.0961868 21.1296 0.584256C24.7088 1.21177 26.5681 3.93101 27.428 7.24291C28.2182 10.2875 28.2299 13.4367 26.8121 16.2954C26.0335 17.8526 24.825 19.2936 23.5351 20.4789C22.6287 21.3039 22.3614 21.9198 22.8611 22.9889C24.7553 27.0213 26.6146 31.0653 28.4855 35.0977C29.3222 36.9105 28.625 39.2114 26.9864 39.99C25.2433 40.8267 23.0819 39.8157 22.1755 37.8286C19.9792 33.006 17.7596 28.195 15.5168 23.3957C15.3658 23.0819 14.9823 22.6636 14.6917 22.6519C12.2398 22.5938 9.7762 22.6171 7.14992 22.6171Z" fill="white"/>
</svg>
